HIERARCHY
ROOT Pelvis
{
	OFFSET 0.000000 0.000000 0.000000
	CHANNELS 6 Xposition Yposition Zposition Xrotation Yrotation Zrotation
	JOINT LeftUpLeg_virtual
	{
		OFFSET 0.000000 0.000000 0.000000
		CHANNELS 3 Xrotation Yrotation Zrotation
		JOINT LeftUpLeg
		{
			OFFSET 18.735201 -5.666702 -4.541200
			CHANNELS 3 Xrotation Yrotation Zrotation
			JOINT LeftLeg
			{
				OFFSET -0.021200 -31.938179 0.493100
				CHANNELS 3 Xrotation Yrotation Zrotation
				JOINT LeftFoot
				{
					OFFSET 0.021200 -31.938179 -4.336299
					CHANNELS 3 Xrotation Yrotation Zrotation
					JOINT LeftToeBase
					{
						OFFSET 0.943001 -26.722000 15.023500
						CHANNELS 3 Xrotation Yrotation Zrotation
						End Site
						{
							OFFSET 0 0 0
						}
					}
				}
			}
		}
	}
	JOINT RightUpLeg_virtual
	{
		OFFSET 0.000000 0.000000 0.000000
		CHANNELS 3 Xrotation Yrotation Zrotation
		JOINT RightUpLeg
		{
			OFFSET -18.735201 -5.666702 -4.541200
			CHANNELS 3 Xrotation Yrotation Zrotation
			JOINT RightLeg
			{
				OFFSET 0.018946 -31.938133 0.493100
				CHANNELS 3 Xrotation Yrotation Zrotation
				JOINT RightFoot
				{
					OFFSET -0.018946 -31.938126 -4.336299
					CHANNELS 3 Xrotation Yrotation Zrotation
					JOINT RightToeBase
					{
						OFFSET -0.943001 -26.722004 15.023500
						CHANNELS 3 Xrotation Yrotation Zrotation
						End Site
						{
							OFFSET 0 0 0
						}
					}
				}
			}
		}
	}
	JOINT Hips_virtual
	{
		OFFSET 0.000000 0.000000 0.000000
		CHANNELS 3 Xrotation Yrotation Zrotation
		JOINT Hips
		{
			OFFSET -0.000000 -0.000000 -0.000000
			CHANNELS 3 Xrotation Yrotation Zrotation
			JOINT Spine
			{
				OFFSET 0.000000 10.199997 -0.299500
				CHANNELS 3 Xrotation Yrotation Zrotation
				JOINT Spine1
				{
					OFFSET 0.000000 11.900002 -1.516600
					CHANNELS 3 Xrotation Yrotation Zrotation
					JOINT Spine2
					{
						OFFSET 0.000000 13.600006 -2.842500
						CHANNELS 3 Xrotation Yrotation Zrotation
						JOINT Neck_virtual
						{
							OFFSET 0.000000 0.000000 0.000000
							CHANNELS 3 Xrotation Yrotation Zrotation
							JOINT Neck
							{
								OFFSET 0.000000 9.624100 -2.890100
								CHANNELS 3 Xrotation Yrotation Zrotation
								JOINT Head
								{
									OFFSET 0.000000 14.068802 -1.351900
									CHANNELS 3 Xrotation Yrotation Zrotation
									End Site
									{
										OFFSET 0 0 0
									}
								}
							}
						}
						JOINT LeftShoulder_virtual
						{
							OFFSET 0.000000 0.000000 0.000000
							CHANNELS 3 Xrotation Yrotation Zrotation
							JOINT LeftShoulder
							{
								OFFSET 15.263000 10.923401 -0.547700
								CHANNELS 3 Xrotation Yrotation Zrotation
								JOINT LeftArm
								{
									OFFSET 25.438599 -2.830597 -13.032500
									CHANNELS 3 Xrotation Yrotation Zrotation
									JOINT LeftForeArm
									{
										OFFSET 29.960503 0.000000 0.000000
										CHANNELS 3 Xrotation Yrotation Zrotation
										JOINT LeftHand
										{
											OFFSET 27.849251 0.000000 0.000000
											CHANNELS 3 Xrotation Yrotation Zrotation
											End Site
											{
												OFFSET 0 0 0
											}
										}
									}
								}
							}
						}
						JOINT RightShoulder_virtual
						{
							OFFSET 0.000000 0.000000 0.000000
							CHANNELS 3 Xrotation Yrotation Zrotation
							JOINT RightShoulder
							{
								OFFSET -15.263000 10.923401 -0.547700
								CHANNELS 3 Xrotation Yrotation Zrotation
								JOINT RightArm
								{
									OFFSET -25.438599 -2.830597 -13.032500
									CHANNELS 3 Xrotation Yrotation Zrotation
									JOINT RightForeArm
									{
										OFFSET -29.960503 0.000000 0.000000
										CHANNELS 3 Xrotation Yrotation Zrotation
										JOINT RightHand
										{
											OFFSET -27.849251 0.000000 0.000000
											CHANNELS 3 Xrotation Yrotation Zrotation
											End Site
											{
												OFFSET 0 0 0
											}
										}
									}
								}
							}
						}
					}
				}
			}
		}
	}
}
MOTION
Frames: 6
Frame Time: 0.03333333
43.725197 91.559464 21.163895 0.000000 0.000000 0.000000 9.366121 -42.534774 1.022309 -29.809964 0.745569 11.805227 36.544459 0.787066 -2.907359 -16.033941 2.320239 -8.563952 0.000000 0.000000 0.000000 9.937967 -10.317094 -0.576232 -19.155771 -8.275489 -17.525070 68.206085 -2.789112 0.408980 10.901305 -4.487468 10.337479 0.000000 0.000000 0.000000 11.210237 -6.985550 0.724390 -17.140959 -51.699703 -11.462155 4.421004 21.717727 2.329983 4.071364 11.457216 -1.035092 0.000000 0.000000 0.000000 5.571601 7.613911 -1.292679 -2.464175 1.819614 0.528914 0.000000 0.000000 0.000000 2.563697 8.398001 -4.166479 -2.976019 -5.907543 -9.021186 -11.780149 21.706553 -52.065661 -8.479250 -29.573951 -3.901731 0.000000 0.000000 0.000000 9.061876 6.030684 -0.609622 4.247195 -11.339420 24.130027 7.736681 11.360274 36.148725 13.696109 65.309149 -9.920132 0.000000 0.000000 0.000000 
44.082012 91.538048 22.419640 0.000000 0.000000 0.000000 9.036689 -42.058355 0.321875 -29.777265 1.017497 11.211299 36.450052 0.446165 -2.600171 -16.274350 1.880329 -8.340473 0.000000 0.000000 0.000000 8.738763 -6.308532 -0.941490 -20.655984 -6.912580 -17.336063 70.551592 -1.935689 -0.844574 13.281505 -2.744961 9.069579 0.000000 0.000000 0.000000 11.410632 -6.417148 0.688569 -16.507037 -51.119130 -11.108818 4.461340 21.019041 2.254857 4.118316 11.129654 -1.097792 0.000000 0.000000 0.000000 5.596395 7.709874 -1.278707 -2.473905 1.883781 0.553725 0.000000 0.000000 0.000000 2.645944 8.345940 -4.152655 -3.029526 -6.103311 -8.879318 -11.391335 20.726129 -51.964650 -8.149987 -30.637975 -3.745165 0.000000 0.000000 0.000000 9.094654 5.975458 -0.582518 4.251739 -11.690793 24.274287 7.907815 11.160934 36.751298 13.571184 65.612136 -9.553247 0.000000 0.000000 0.000000 
44.497784 91.595406 23.717947 0.000000 0.000000 0.000000 8.831411 -41.374936 -0.275811 -29.580163 1.323356 10.683925 36.180864 0.039233 -2.199460 -16.577730 1.343298 -8.036683 0.000000 0.000000 0.000000 7.386504 -2.440794 -1.075320 -22.358945 -5.600302 -16.963176 71.771177 -1.242910 -2.024174 14.849289 -1.270787 7.755771 0.000000 0.000000 0.000000 11.650963 -5.909760 0.662705 -15.682567 -50.556944 -10.706344 4.534156 20.241634 2.178927 4.177785 10.758452 -1.157812 0.000000 0.000000 0.000000 5.616517 7.790056 -1.274381 -2.485307 1.946257 0.571395 0.000000 0.000000 0.000000 2.748355 8.267658 -4.144565 -3.063191 -6.327792 -8.770332 -11.038582 19.609721 -51.847491 -7.811716 -31.818078 -3.589708 0.000000 0.000000 0.000000 9.130921 5.900013 -0.560600 4.266289 -12.043861 24.375391 8.008743 10.860849 37.250144 13.343731 65.793833 -9.146705 0.000000 0.000000 0.000000 
44.880829 91.739838 25.003748 0.000000 0.000000 0.000000 8.737302 -40.499316 -0.755888 -29.256180 1.652102 10.246490 35.801878 -0.422614 -1.723995 -16.898856 0.724328 -7.668460 0.000000 0.000000 0.000000 6.215214 1.260177 -1.104197 -23.903721 -4.390592 -16.588889 72.981630 -0.584304 -3.083978 16.370517 0.118250 6.593203 0.000000 0.000000 0.000000 11.918905 -5.486422 0.643356 -14.739155 -50.019558 -10.332930 4.756416 19.296387 2.158179 4.317627 10.302096 -1.179734 0.000000 0.000000 0.000000 5.664519 7.849029 -1.281594 -2.480918 2.005362 0.581502 0.000000 0.000000 0.000000 2.874153 8.162699 -4.143185 -3.070921 -6.578244 -8.694476 -10.754464 18.346464 -51.734766 -7.484333 -33.134368 -3.454396 0.000000 0.000000 0.000000 9.195166 5.801348 -0.548689 4.313573 -12.388250 24.410898 8.109146 10.544500 37.665088 13.084461 65.900916 -8.733317 0.000000 0.000000 0.000000 
45.203224 91.906944 26.254030 0.000000 0.000000 0.000000 8.708530 -39.517016 -1.142423 -28.891468 1.987308 9.894290 35.425206 -0.942095 -1.217730 -17.184391 0.038979 -7.293136 0.000000 0.000000 0.000000 5.167478 4.670160 -0.978230 -25.364889 -3.321610 -16.167944 74.181974 0.076306 -3.977100 17.722073 1.428245 5.724037 0.000000 0.000000 0.000000 12.180107 -5.185413 0.622294 -13.965152 -49.594328 -10.194010 4.961745 18.237817 2.184372 4.448000 9.787476 -1.177251 0.000000 0.000000 0.000000 5.724037 7.869887 -1.285803 -2.465751 2.049446 0.590791 0.000000 0.000000 0.000000 3.000644 8.022987 -4.142194 -3.070771 -6.893645 -8.631991 -10.621545 16.980919 -51.584290 -7.200817 -34.568721 -3.338533 0.000000 0.000000 0.000000 9.231529 5.672667 -0.538395 4.346935 -12.763487 24.390262 8.169365 10.169180 38.015812 12.735816 65.892563 -8.258391 0.000000 0.000000 0.000000 
45.485531 92.083488 27.444050 0.000000 0.000000 0.000000 8.686693 -38.543287 -1.497116 -28.560344 2.313449 9.576975 34.977016 -1.504487 -0.695734 -17.502869 -0.690571 -6.918228 0.000000 0.000000 0.000000 4.135682 7.635039 -0.762461 -26.832538 -2.399806 -15.757836 75.136063 0.647012 -4.688343 18.683047 2.521355 5.094699 0.000000 0.000000 0.000000 12.438072 -4.947786 0.607257 -13.215758 -49.093952 -10.126127 5.019719 17.098660 2.330607 4.501288 9.234862 -1.114637 0.000000 0.000000 0.000000 5.788091 7.859412 -1.290880 -2.443584 2.082323 0.597538 0.000000 0.000000 0.000000 3.125866 7.853668 -4.143345 -3.065429 -7.247999 -8.589881 -10.623337 15.457078 -51.482076 -6.967877 -36.198415 -3.279564 0.000000 0.000000 0.000000 9.296318 5.533895 -0.533057 4.401323 -13.076725 24.308215 8.163005 9.863504 38.176215 12.414423 65.894530 -7.875347 0.000000 0.000000 0.000000 
